<svg width="140" height="22" viewBox="0 0 140 22" fill="none" xmlns="http://www.w3.org/2000/svg">
<path d="M3.87291 20.9312C1.61921 22.233 0.000244141 21.1482 0.000244141 19.2186C0.000244141 17.1645 0.000244141 11.001 0.000244141 11.001C0.000244141 11.001 0.000244141 4.8376 0.000244141 2.78346C0.000244141 0.853873 1.61821 -0.230955 3.87291 1.07084C7.38302 3.09786 17.9123 9.18093 17.9123 9.18093C19.3124 9.98953 19.3124 12.0115 17.9123 12.8201C17.9123 12.8211 7.38302 18.9042 3.87291 20.9312Z" fill="#00C1FF"/>
<path d="M15.462 20.9293C13.2083 22.2311 11.5894 21.1462 11.5894 19.2166C11.5894 17.1625 11.5894 10.9991 11.5894 10.9991C11.5894 10.9991 11.5894 4.83565 11.5894 2.78151C11.5894 0.85192 13.2073 -0.232908 15.462 1.06889C18.8948 3.05171 29.1931 9.00118 29.1931 9.00118C30.7308 9.88914 30.7308 12.109 29.1931 12.997C29.1921 12.997 18.8948 18.9464 15.462 20.9293Z" fill="#BCEC30"/>
<mask id="mask0_1_2216" style="mask-type:alpha" maskUnits="userSpaceOnUse" x="11" y="0" width="20" height="22">
<path d="M15.462 20.9293C13.2083 22.2311 11.5894 21.1462 11.5894 19.2166C11.5894 17.1625 11.5894 10.9991 11.5894 10.9991C11.5894 10.9991 11.5894 4.83565 11.5894 2.78151C11.5894 0.85192 13.2073 -0.232908 15.462 1.06889C18.8948 3.05171 29.1931 9.00118 29.1931 9.00118C30.7308 9.88914 30.7308 12.109 29.1931 12.997C29.1921 12.997 18.8948 18.9464 15.462 20.9293Z" fill="#6FE4FF"/>
</mask>
<g mask="url(#mask0_1_2216)">
<g filter="url(#filter0_f_1_2216)">
<path d="M3.87328 20.9312C1.61958 22.233 0.000610352 21.1482 0.000610352 19.2186C0.000610352 17.1645 0.000610352 11.001 0.000610352 11.001C0.000610352 11.001 0.000610352 4.8376 0.000610352 2.78346C0.000610352 0.853873 1.61857 -0.230955 3.87328 1.07084C7.38339 3.09786 17.9127 9.18093 17.9127 9.18093C19.3127 9.98953 19.3127 12.0115 17.9127 12.8201C17.9127 12.8211 7.38339 18.9042 3.87328 20.9312Z" fill="#99D100"/>
</g>
</g>
<path d="M37.6903 14.668L38.0829 13.774C38.3506 13.1661 38.8324 13.0052 39.4391 13.4521C40.5991 14.3104 42.5086 14.9362 45.0606 14.9362C47.2378 14.9362 48.1658 14.3819 48.1658 13.7203C48.1658 12.9694 47.3984 12.7727 46.1313 12.6118L43.2403 12.2363C39.7604 11.7714 38.0115 10.5198 38.0115 8.3385C38.0115 5.99623 39.921 4.13672 44.3468 4.13672C46.8095 4.13672 48.3978 4.5122 49.4328 4.90555C50.5749 5.35255 50.7356 5.72803 50.7356 6.65779V7.87362C50.7356 8.62458 50.4679 8.87489 49.7362 8.87489H48.9153C48.1658 8.87489 47.9159 8.6067 47.9159 7.87362V7.48026C47.4341 7.31934 46.2384 7.0869 44.8464 7.0869C42.4016 7.0869 41.2237 7.5339 41.2237 8.28486C41.2237 8.83913 41.9376 9.16097 43.2403 9.33977L46.0778 9.71525C49.5042 10.1444 51.3245 11.1814 51.3245 13.6846C51.3245 16.2235 48.9153 17.8506 44.6144 17.8506C41.4557 17.8506 38.9216 16.8493 37.9044 15.9196C37.5475 15.562 37.494 15.115 37.6903 14.668Z" fill="black"/>
<path d="M69.0263 17.6352H67.5629C66.8491 17.6352 66.6171 17.5279 66.2602 16.9915L63.5119 12.9328C63.1193 12.3785 62.8159 12.2354 61.995 12.2354H59.2468V16.6339C59.2468 17.3849 58.9791 17.6352 58.2474 17.6352H57.1945C56.445 17.6352 56.1951 17.367 56.1951 16.6339V3.43854H55.2136C54.4641 3.43854 54.2142 3.17034 54.2142 2.43726V1.54327C54.2142 0.792311 54.4819 0.541992 55.2136 0.541992H58.2652C59.0148 0.541992 59.2646 0.810191 59.2646 1.54327V9.26738H61.7273C62.5482 9.26738 62.8338 9.14223 63.2442 8.57007L65.5463 5.01197C65.9211 4.45769 66.1531 4.35041 66.8669 4.35041H68.3303C69.1333 4.35041 69.2761 4.99409 68.83 5.65564L66.2602 9.55346C65.9925 9.92894 65.6713 10.3223 65.3679 10.6441C65.6891 10.9123 66.1352 11.3593 66.3137 11.6275L69.5259 16.3657C69.9721 16.9915 69.8115 17.6352 69.0263 17.6352Z" fill="black"/>
<path d="M74.248 20.0667V19.1906C74.248 18.4396 74.5157 18.1893 75.2474 18.1893H76.5144C77.2818 18.1893 77.6565 18.0284 77.9421 17.4205L78.1027 17.0808L72.0351 5.584C71.6603 4.88668 71.9637 4.36816 72.7489 4.36816H74.1231C74.8369 4.36816 75.1581 4.49332 75.4258 5.01184L77.9599 10.2328C78.5488 11.4307 79.2091 12.8075 79.7267 14.0054C80.262 12.8432 80.8688 11.5022 81.4399 10.3401L84.0275 5.01184C84.2595 4.5112 84.6164 4.36816 85.3302 4.36816H86.7044C87.5074 4.36816 87.793 4.90456 87.4182 5.584L80.5119 18.7257C79.7088 20.2455 78.7987 21.0859 76.7286 21.0859H75.2117C74.4978 21.0859 74.248 20.8177 74.248 20.0667Z" fill="black"/>
<path d="M106.08 11.0026C106.08 15.2223 102.957 17.8506 98.7456 17.8506C96.9253 17.8506 95.5333 17.4036 94.5518 16.8493V20.4611C94.5518 21.212 94.2841 21.4623 93.5524 21.4623H92.4995C91.75 21.4623 91.5002 21.1941 91.5002 20.4611V7.2657H90.5187C89.7691 7.2657 89.5193 6.9975 89.5193 6.26443V5.37043C89.5193 4.61948 89.787 4.36916 90.5187 4.36916H93.0884C93.838 4.36916 94.0878 4.63736 94.0878 5.37043V5.44195C95.0872 4.7804 96.6041 4.13672 98.7456 4.13672C102.957 4.1546 106.08 6.78294 106.08 11.0026ZM102.904 11.0026C102.904 8.53518 100.923 7.15842 98.46 7.15842C96.6933 7.15842 95.2478 7.90938 94.5696 8.51729V13.5058C95.2656 14.1137 96.6933 14.8647 98.46 14.8647C100.923 14.8468 102.904 13.47 102.904 11.0026Z" fill="black"/>
<path d="M122.705 9.96527C122.705 10.7162 122.438 10.9665 121.706 10.9665H120.653C119.904 10.9665 119.654 10.752 119.654 9.96527C119.654 7.99848 118.904 7.12236 117.12 7.12236C115.424 7.12236 114.014 8.17728 113.229 9.46463V16.6345C113.229 17.3854 112.961 17.6357 112.23 17.6357H111.177C110.427 17.6357 110.178 17.3675 110.178 16.6345V7.2654H109.196C108.446 7.2654 108.197 6.9972 108.197 6.26413V5.37013C108.197 4.61917 108.464 4.36886 109.196 4.36886H111.766C112.515 4.36886 112.765 4.63705 112.765 5.37013V6.22837C113.711 5.17345 115.157 4.1543 117.619 4.1543C121.224 4.1543 122.705 6.29989 122.705 9.96527Z" fill="black"/>
<path d="M124.6 11.0023C124.6 7.06872 127.919 4.1543 132.327 4.1543C136.699 4.1543 140.001 7.06872 140.001 11.0023C140.001 14.9538 136.681 17.8682 132.327 17.8682C127.919 17.8682 124.6 14.9538 124.6 11.0023ZM136.967 11.0023C136.967 8.71367 134.95 7.05084 132.327 7.05084C129.65 7.05084 127.634 8.73155 127.634 11.0023C127.634 13.3088 129.65 14.9895 132.327 14.9895C134.968 14.9895 136.967 13.3088 136.967 11.0023Z" fill="black"/>
<defs>
<filter id="filter0_f_1_2216" x="-8.92884" y="-8.4275" width="36.8211" height="38.857" filterUnits="userSpaceOnUse" color-interpolation-filters="sRGB">
<feFlood flood-opacity="0" result="BackgroundImageFix"/>
<feBlend mode="normal" in="SourceGraphic" in2="BackgroundImageFix" result="shape"/>
<feGaussianBlur stdDeviation="4.46473" result="effect1_foregroundBlur_1_2216"/>
</filter>
</defs>
</svg>
